<svg version="1.1" id="Layer_1" xmlns="http://www.w3.org/2000/svg" xmlns:xlink="http://www.w3.org/1999/xlink" x="0px" y="0px"
	 width="100%" viewBox="0 0 1024 1024" enable-background="new 0 0 1024 1024" xml:space="preserve">
<path fill="#D8F009" opacity="1.000000" stroke="none" 
	d="
M676.000000,1025.000000 
	C450.666656,1025.000000 225.833328,1025.000000 1.000000,1025.000000 
	C1.000000,683.666687 1.000000,342.333344 1.000000,1.000000 
	C342.333344,1.000000 683.666687,1.000000 1025.000000,1.000000 
	C1025.000000,342.333344 1025.000000,683.666687 1025.000000,1025.000000 
	C908.833313,1025.000000 792.666687,1025.000000 676.000000,1025.000000 
M564.756470,249.669769 
	C563.514648,249.446930 562.272888,249.029556 561.031006,249.029083 
	C480.578735,248.998718 400.126434,248.992905 319.674225,249.060120 
	C317.815430,249.061661 315.957367,249.920685 313.928802,251.256027 
	C313.860901,256.252838 313.733734,261.249634 313.734009,266.246460 
	C313.738403,342.405212 313.759583,418.563934 313.776611,494.722687 
	C313.790497,556.716431 313.815369,618.710205 313.807678,680.703918 
	C313.806274,691.834534 315.218048,702.705933 320.546173,712.627380 
	C331.812103,733.605896 350.289825,743.101929 373.328583,743.769226 
	C395.141449,744.401001 416.986664,743.917908 438.817657,743.909058 
	C439.442352,743.908813 440.067017,743.725952 441.245789,743.541565 
	C441.245789,690.685974 441.245789,637.965637 441.245789,584.878235 
	C443.310913,584.878235 444.787994,584.878235 446.265076,584.878235 
	C465.263123,584.878906 484.262543,585.001221 503.258240,584.789612 
	C507.674683,584.740356 510.463257,586.064331 513.117065,589.720215 
	C549.521667,639.870728 586.115295,689.883972 622.562561,740.003601 
	C624.617371,742.829224 626.655212,744.037903 630.263794,744.027039 
	C673.258606,743.898010 716.254089,743.963989 759.249390,743.978577 
	C762.348022,743.979614 765.446655,743.978638 769.942261,743.978638 
	C723.745911,684.460022 678.373413,626.002808 632.825684,567.319824 
	C634.157043,566.769165 635.068604,566.383728 635.986389,566.013794 
	C661.944519,555.550598 684.626282,540.576843 701.846558,518.108398 
	C722.086487,491.700104 731.429565,461.425293 733.349121,428.588409 
	C735.291687,395.357300 730.133667,363.352783 714.564331,333.713043 
	C692.177612,291.095001 655.867859,266.519409 609.626709,256.250153 
	C594.924438,252.985046 579.679626,252.162994 564.756470,249.669769 
z"/>
<path fill="#262825" opacity="1.000000" stroke="none" 
	d="
M564.683044,250.223038 
	C579.679626,252.162994 594.924438,252.985046 609.626709,256.250153 
	C655.867859,266.519409 692.177612,291.095001 714.564331,333.713043 
	C730.133667,363.352783 735.291687,395.357300 733.349121,428.588409 
	C731.429565,461.425293 722.086487,491.700104 701.846558,518.108398 
	C684.626282,540.576843 661.944519,555.550598 635.986389,566.013794 
	C635.068604,566.383728 634.157043,566.769165 632.825684,567.319824 
	C678.373413,626.002808 723.745911,684.460022 769.942261,743.978638 
	C765.446655,743.978638 762.348022,743.979614 759.249390,743.978577 
	C716.254089,743.963989 673.258606,743.898010 630.263794,744.027039 
	C626.655212,744.037903 624.617371,742.829224 622.562561,740.003601 
	C586.115295,689.883972 549.521667,639.870728 513.117065,589.720215 
	C510.463257,586.064331 507.674683,584.740356 503.258240,584.789612 
	C484.262543,585.001221 465.263123,584.878906 446.265076,584.878235 
	C444.787994,584.878235 443.310913,584.878235 441.245789,584.878235 
	C441.245789,637.965637 441.245789,690.685974 441.245789,743.541565 
	C440.067017,743.725952 439.442352,743.908813 438.817657,743.909058 
	C416.986664,743.917908 395.141449,744.401001 373.328583,743.769226 
	C350.289825,743.101929 331.812103,733.605896 320.546173,712.627380 
	C315.218048,702.705933 313.806274,691.834534 313.807678,680.703918 
	C313.815369,618.710205 313.790497,556.716431 313.776611,494.722687 
	C313.759583,418.563934 313.738403,342.405212 313.734009,266.246460 
	C313.733734,261.249634 313.860901,256.252838 314.475250,250.826828 
	C377.942474,250.377167 440.863251,250.364182 503.784027,250.332016 
	C524.083679,250.321640 544.383362,250.260773 564.683044,250.223038 
M607.403076,440.757599 
	C608.511597,435.221558 610.068115,429.732422 610.653564,424.141632 
	C613.722290,394.832794 599.677368,372.203094 572.192932,361.736237 
	C558.918762,356.681030 545.038696,355.106903 530.982666,355.026093 
	C502.485077,354.862213 473.986176,354.919556 445.487823,354.905396 
	C444.210175,354.904755 442.932465,355.097748 441.447174,355.217285 
	C441.447174,397.896149 441.447174,440.271912 441.447174,482.714661 
	C442.476196,482.820679 443.126770,482.946106 443.777313,482.946289 
	C473.109009,482.953827 502.445404,483.244812 531.769714,482.777893 
	C541.184753,482.627960 550.793579,481.365936 559.920227,479.057098 
	C581.109070,473.696838 598.807068,463.328156 607.403076,440.757599 
z"/>
<path fill="#E9F502" opacity="1.000000" stroke="none" 
	d="
M564.719727,249.946411 
	C544.383362,250.260773 524.083679,250.321640 503.784027,250.332016 
	C440.863251,250.364182 377.942474,250.377167 314.560333,250.388702 
	C315.957367,249.920685 317.815430,249.061661 319.674225,249.060120 
	C400.126434,248.992905 480.578735,248.998718 561.031006,249.029083 
	C562.272888,249.029556 563.514648,249.446930 564.719727,249.946411 
z"/>
<path fill="#D8F305" opacity="1.000000" stroke="none" 
	d="
M607.257202,441.123596 
	C598.807068,463.328156 581.109070,473.696838 559.920227,479.057098 
	C550.793579,481.365936 541.184753,482.627960 531.769714,482.777893 
	C502.445404,483.244812 473.109009,482.953827 443.777313,482.946289 
	C443.126770,482.946106 442.476196,482.820679 441.447174,482.714661 
	C441.447174,440.271912 441.447174,397.896149 441.447174,355.217285 
	C442.932465,355.097748 444.210175,354.904755 445.487823,354.905396 
	C473.986176,354.919556 502.485077,354.862213 530.982666,355.026093 
	C545.038696,355.106903 558.918762,356.681030 572.192932,361.736237 
	C599.677368,372.203094 613.722290,394.832794 610.653564,424.141632 
	C610.068115,429.732422 608.511597,435.221558 607.257202,441.123596 
z"/>
</svg>